<?xml version="1.0" encoding="UTF-8" standalone="no"?>
<!-- Created with Inkscape (http://www.inkscape.org/) -->

<svg
   xmlns:dc="http://purl.org/dc/elements/1.1/"
   xmlns:cc="http://creativecommons.org/ns#"
   xmlns:rdf="http://www.w3.org/1999/02/22-rdf-syntax-ns#"
   xmlns:svg="http://www.w3.org/2000/svg"
   xmlns="http://www.w3.org/2000/svg"
   xmlns:sodipodi="http://sodipodi.sourceforge.net/DTD/sodipodi-0.dtd"
   xmlns:inkscape="http://www.inkscape.org/namespaces/inkscape"
   id="svg3351"
   version="1.1"
   inkscape:version="0.48.0 r9654"
   width="640.5"
   height="212.92125"
   xml:space="preserve"
   sodipodi:docname="2d_quadrotor_rotated.pdf"><metadata
     id="metadata3357"><rdf:RDF><cc:Work
         rdf:about=""><dc:format>image/svg+xml</dc:format><dc:type
           rdf:resource="http://purl.org/dc/dcmitype/StillImage" /><dc:title></dc:title></cc:Work></rdf:RDF></metadata><defs
     id="defs3355"><marker
       inkscape:stockid="Arrow1Lstart"
       orient="auto"
       refY="0.0"
       refX="0.0"
       id="Arrow1Lstart"
       style="overflow:visible"><path
         id="path4921"
         d="M 0.0,0.0 L 5.0,-5.0 L -12.5,0.0 L 5.0,5.0 L 0.0,0.0 z "
         style="fill-rule:evenodd;stroke:#000000;stroke-width:1.0pt;marker-start:none"
         transform="scale(0.8) translate(12.5,0)" /></marker><marker
       inkscape:stockid="Arrow1Lend"
       orient="auto"
       refY="0.0"
       refX="0.0"
       id="Arrow1Lend"
       style="overflow:visible;"><path
         id="path4924"
         d="M 0.0,0.0 L 5.0,-5.0 L -12.5,0.0 L 5.0,5.0 L 0.0,0.0 z "
         style="fill-rule:evenodd;stroke:#000000;stroke-width:1.0pt;marker-start:none;"
         transform="scale(0.8) rotate(180) translate(12.5,0)" /></marker></defs><sodipodi:namedview
     pagecolor="#ffffff"
     bordercolor="#666666"
     borderopacity="1"
     objecttolerance="10"
     gridtolerance="10"
     guidetolerance="10"
     inkscape:pageopacity="0"
     inkscape:pageshadow="2"
     inkscape:window-width="1280"
     inkscape:window-height="752"
     id="namedview3353"
     showgrid="false"
     inkscape:zoom="4.5219507"
     inkscape:cx="435.40299"
     inkscape:cy="73.321717"
     inkscape:window-x="-3"
     inkscape:window-y="-3"
     inkscape:window-maximized="1"
     inkscape:current-layer="g3359"
     showguides="false"><inkscape:grid
       type="xygrid"
       id="grid4146" /></sodipodi:namedview><g
     id="g3359"
     inkscape:groupmode="layer"
     inkscape:label="2d_quadrotor"
     transform="matrix(1.25,0,0,-1.25,-79.75,520.75)"><g
   id="g3361"
   transform="matrix(0.83007035,0.23243755,-0.23243755,0.83007035,131.60532,-4.3879338)"><path
     d="m 256,320 0,-48 128,0 0,48 -128,0 z"
     style="fill:#d3d3d3;fill-opacity:1;fill-rule:evenodd;stroke:#d3d3d3;stroke-width:0.40000001;stroke-linecap:butt;stroke-linejoin:round;stroke-miterlimit:10;stroke-opacity:1;stroke-dasharray:none"
     id="path3363"
     inkscape:connector-curvature="0" /></g><g
   id="g3365"
   transform="matrix(0.83007035,0.23243755,-0.23243755,0.83007035,131.60532,-4.211019)"><path
     d="m 384,304 0,-16 128,0 0,16 -128,0 z"
     style="fill:#d3d3d3;fill-opacity:1;fill-rule:evenodd;stroke:none"
     id="path3367"
     inkscape:connector-curvature="0" /></g><g
   id="g3369"
   transform="matrix(0.83007035,0.23243755,-0.23243755,0.83007035,131.60532,-4.211019)"><path
     d="m 256,304 0,-16 -128,0 0,16 128,0 z"
     style="fill:#d3d3d3;fill-opacity:1;fill-rule:evenodd;stroke:none"
     id="path3371"
     inkscape:connector-curvature="0" /></g><g
   id="g3373"
   transform="matrix(0.83007035,0.23243755,-0.23243755,0.83007035,131.60532,-4.211019)"><path
     d="m 112,320 0,-48 16,0 0,48 -16,0 z"
     style="fill:#d3d3d3;fill-opacity:1;fill-rule:evenodd;stroke:#d3d3d3;stroke-width:0.40000001;stroke-linecap:butt;stroke-linejoin:round;stroke-miterlimit:10;stroke-opacity:1;stroke-dasharray:none"
     id="path3375"
     inkscape:connector-curvature="0" /></g><g
   id="g3377"
   transform="matrix(0.83007035,0.23243755,-0.23243755,0.83007035,131.60532,-4.211019)"><path
     d="m 512,320 0,-48 16,0 0,48 -16,0 z"
     style="fill:#d3d3d3;fill-opacity:1;fill-rule:evenodd;stroke:none"
     id="path3379"
     inkscape:connector-curvature="0" /></g><g
   id="g3381"
   transform="matrix(0.83007035,0.23243755,-0.23243755,0.83007035,131.60532,-4.211019)"><path
     d="m 64,336 0,-16 112,0 0,16 -112,0 z"
     style="fill:#add8e6;fill-opacity:1;fill-rule:evenodd;stroke:#d3d3d3;stroke-width:0.40000001;stroke-linecap:butt;stroke-linejoin:round;stroke-miterlimit:10;stroke-opacity:1;stroke-dasharray:none"
     id="path3383"
     inkscape:connector-curvature="0" /></g><g
   id="g3385"
   transform="matrix(0.83007035,0.23243755,-0.23243755,0.83007035,131.60532,-4.211019)"><path
     d="m 576,320 0,16 -112,0 0,-16 112,0 z"
     style="fill:#add8e6;fill-opacity:1;fill-rule:evenodd;stroke:#d3d3d3;stroke-width:0.40000001;stroke-linecap:butt;stroke-linejoin:round;stroke-miterlimit:10;stroke-opacity:1;stroke-dasharray:none"
     id="path3387"
     inkscape:connector-curvature="0" /></g><g
   id="g3389"
   transform="matrix(0.83007035,0.23243755,-0.23243755,0.83007035,131.60532,-4.211019)"><path
     d="m 320,296 0,120 0,0"
     style="fill:#d3d3d3;fill-opacity:1;fill-rule:evenodd;stroke:none"
     id="path3391"
     inkscape:connector-curvature="0" /></g><g
   id="g3393"
   transform="matrix(0.83007035,0.23243755,-0.23243755,0.83007035,131.60532,-4.211019)"
   style="stroke:#d33e3e;stroke-opacity:1"><path
     d="m 320,296 0,120"
     style="fill:none;stroke:#d33e3e;stroke-width:1.20000005000000010;stroke-linecap:butt;stroke-linejoin:round;stroke-miterlimit:10;stroke-opacity:1;stroke-dasharray:none"
     id="path3395"
     inkscape:connector-curvature="0" /><g
     id="g3397"
     style="stroke:#d33e3e;stroke-opacity:1"><g
       id="g3399"
       style="stroke:#d33e3e;stroke-opacity:1"><path
         d="m 320,416 -2.331,-7 4.662,0 -2.331,7 z"
         style="fill:#000000;fill-opacity:1;fill-rule:evenodd;stroke:#d33e3e;stroke-width:1.20000005000000010;stroke-linecap:butt;stroke-linejoin:round;stroke-miterlimit:10;stroke-opacity:1;stroke-dasharray:none"
         id="path3401"
         inkscape:connector-curvature="0" /></g></g></g><g
   id="g3403"
   transform="matrix(0.83007035,0.23243755,-0.23243755,0.83007035,131.60532,-4.211019)"
   style="stroke:#d84040;stroke-opacity:1"><path
     d="m 272,288 c 4.418,-26.51 29.49,-44.418 56,-40 19.942,3.324 35.752,18.632 39.717,38.457"
     style="fill:none;stroke:#d84040;stroke-width:1.20000005000000010;stroke-linecap:butt;stroke-linejoin:round;stroke-miterlimit:10;stroke-opacity:1;stroke-dasharray:none"
     id="path3405"
     inkscape:connector-curvature="0" /><g
     id="g3407"
     style="stroke:#d84040;stroke-opacity:1"><g
       id="g3409"
       style="stroke:#d84040;stroke-opacity:1"><path
         d="m 367.717,286.457 -3.658,-6.407 4.571,-0.915 -0.913,7.322 z"
         style="fill:#000000;fill-opacity:1;fill-rule:evenodd;stroke:#d84040;stroke-width:1.20000005000000010;stroke-linecap:butt;stroke-linejoin:round;stroke-miterlimit:10;stroke-opacity:1;stroke-dasharray:none"
         id="path3411"
         inkscape:connector-curvature="0" /></g></g></g><g
   id="g3413"
   transform="matrix(0.83007035,0.23243755,-0.23243755,0.83007035,131.60532,-4.211019)"><path
     d="m 331.314,296 c 0,6.248 -5.066,11.314 -11.314,11.314 -6.248,0 -11.314,-5.066 -11.314,-11.314 0,-6.248 5.066,-11.314 11.314,-11.314 6.248,0 11.314,5.066 11.314,11.314"
     style="fill:none;stroke:#000000;stroke-width:1.20000005;stroke-linecap:butt;stroke-linejoin:round;stroke-miterlimit:10;stroke-opacity:1;stroke-dasharray:none"
     id="path3415"
     inkscape:connector-curvature="0" /></g><g
   id="g3417"
   transform="matrix(0.83007035,0.23243755,-0.23243755,0.83007035,131.60532,-4.211019)"><path
     d="m 320,308 c -6.627,0 -12,-5.373 -12,-12"
     style="fill:#000000;fill-opacity:1;fill-rule:evenodd;stroke:#000000;stroke-width:0.40000001;stroke-linecap:butt;stroke-linejoin:round;stroke-miterlimit:10;stroke-opacity:1;stroke-dasharray:none"
     id="path3419"
     inkscape:connector-curvature="0" /></g><g
   id="g3421"
   transform="matrix(0.83007035,0.23243755,-0.23243755,0.83007035,131.60532,-4.211019)"><path
     d="m 308,296 12,0 0,12"
     style="fill:#000000;fill-opacity:1;fill-rule:evenodd;stroke:#000000;stroke-width:0.40000001;stroke-linecap:butt;stroke-linejoin:round;stroke-miterlimit:10;stroke-opacity:1;stroke-dasharray:none"
     id="path3423"
     inkscape:connector-curvature="0" /></g><g
   id="g3425"
   transform="matrix(0.83007035,0.23243755,-0.23243755,0.83007035,131.60532,-4.211019)"><path
     d="m 320,284 0,12 12,0"
     style="fill:#000000;fill-opacity:1;fill-rule:evenodd;stroke:#000000;stroke-width:0.40000001;stroke-linecap:butt;stroke-linejoin:round;stroke-miterlimit:10;stroke-opacity:1;stroke-dasharray:none"
     id="path3427"
     inkscape:connector-curvature="0" /></g><g
   id="g3429"
   transform="matrix(0.83007035,0.23243755,-0.23243755,0.83007035,131.60532,-4.211019)"><path
     d="m 320,284 c 6.627,0 12,5.373 12,12"
     style="fill:#000000;fill-opacity:1;fill-rule:evenodd;stroke:#000000;stroke-width:0.40000001;stroke-linecap:butt;stroke-linejoin:round;stroke-miterlimit:10;stroke-opacity:1;stroke-dasharray:none"
     id="path3431"
     inkscape:connector-curvature="0" /></g><text
   xml:space="preserve"
   style="font-size:16px;font-style:normal;font-variant:normal;font-weight:normal;font-stretch:normal;line-height:125%;letter-spacing:0px;word-spacing:0px;fill:#000000;fill-opacity:1;stroke:none;font-family:Verdana;-inkscape-font-specification:Verdana"
   x="275.10251"
   y="51.92878"
   id="text4132"
   sodipodi:linespacing="125%"
   transform="matrix(0.8,0,0,-0.8,63.8,416.6)"><tspan
     sodipodi:role="line"
     id="tspan4134"
     x="275.10251"
     y="51.92878"
     style="-inkscape-font-specification:Lucida Sans;font-family:Lucida Sans">a<tspan
   style="-inkscape-font-specification:Verdana;font-family:Verdana"
   id="tspan7698">(t)</tspan></tspan></text>

<text
   xml:space="preserve"
   style="font-size:24.93995667px;font-style:normal;font-variant:normal;font-weight:normal;font-stretch:normal;text-align:start;line-height:125%;letter-spacing:0px;word-spacing:0px;writing-mode:lr-tb;text-anchor:start;fill:#000000;fill-opacity:1;stroke:none;font-family:Symbol;-inkscape-font-specification:Symbol"
   x="314.96902"
   y="-275.98755"
   id="text4136"
   sodipodi:linespacing="125%"
   transform="scale(1.0495874,-0.95275531)"><tspan
     sodipodi:role="line"
     id="tspan4138"
     x="314.96902"
     y="-275.98755"
     style="font-size:12.80000019px;font-style:normal;font-variant:normal;font-weight:normal;font-stretch:normal;text-align:start;line-height:125%;writing-mode:lr-tb;text-anchor:start;font-family:Lucida Sans;-inkscape-font-specification:Lucida Sans"><tspan
       style="-inkscape-font-specification:Symbol;font-family:Symbol;font-weight:normal;font-style:normal;font-stretch:normal;font-variant:normal"
       id="tspan5813">a</tspan><tspan
       style="-inkscape-font-specification:Verdana;font-family:Verdana"
       id="tspan7694">(t)</tspan></tspan></text>

<path
   style="fill:none;stroke:#6b4b4b;stroke-width:0.80000000999999998px;stroke-linecap:butt;stroke-linejoin:miter;stroke-opacity:1;marker-end:url(#Arrow1Lend);marker-start:url(#Arrow1Lstart)"
   d="m 327.8,404.31694 0,-88 216,0"
   id="path4148"
   inkscape:connector-curvature="0" /><text
   xml:space="preserve"
   style="font-size:12.80000019px;font-style:normal;font-variant:normal;font-weight:normal;font-stretch:normal;line-height:125%;letter-spacing:0px;word-spacing:0px;fill:#000000;fill-opacity:1;stroke:none;font-family:Verdana;-inkscape-font-specification:Verdana"
   x="519.79999"
   y="-302.263"
   id="text5730"
   sodipodi:linespacing="125%"
   transform="scale(1,-1)"><tspan
     sodipodi:role="line"
     id="tspan5732"
     x="519.79999"
     y="-302.263">y</tspan></text>

<text
   xml:space="preserve"
   style="font-size:12.80000019px;font-style:normal;font-variant:normal;font-weight:normal;font-stretch:normal;line-height:125%;letter-spacing:0px;word-spacing:0px;fill:#000000;fill-opacity:1;stroke:none;font-family:Verdana;-inkscape-font-specification:Verdana"
   x="319.79999"
   y="-382.263"
   id="text5734"
   sodipodi:linespacing="125%"
   transform="scale(1,-1)"><tspan
     sodipodi:role="line"
     id="tspan5736"
     x="319.79999"
     y="-382.263">z</tspan></text>

<path
   style="fill:none;stroke:#000000;stroke-width:1;stroke-linecap:butt;stroke-linejoin:miter;stroke-opacity:1;stroke-miterlimit:4;stroke-dasharray:4,2,1,2;stroke-dashoffset:0"
   d="M 330,125.35289 565,60.614855"
   id="path5815"
   inkscape:connector-curvature="0"
   transform="matrix(0.8,0,0,-0.8,63.8,416.6)" /><path
   sodipodi:type="arc"
   style="fill:none;stroke:#000000;stroke-width:1;stroke-miterlimit:4;stroke-opacity:1;stroke-dasharray:none;stroke-dashoffset:0"
   id="path7500"
   sodipodi:cx="330"
   sodipodi:cy="127.92125"
   sodipodi:rx="80"
   sodipodi:ry="80"
   d="M 407.1191,106.6458 A 80,80 0 0 1 410,127.92125 l -80,0 z"
   transform="matrix(0.8,0,0,-0.8,64.158658,418.69507)"
   sodipodi:start="6.0140032"
   sodipodi:end="6.2831853" /><text
   xml:space="preserve"
   style="font-size:12.80000019px;font-style:normal;font-variant:normal;font-weight:normal;font-stretch:normal;line-height:125%;letter-spacing:0px;word-spacing:0px;fill:#000000;fill-opacity:1;stroke:none;font-family:Verdana;-inkscape-font-specification:Verdana"
   x="393.74609"
   y="-321.62869"
   id="text7686"
   sodipodi:linespacing="125%"
   transform="scale(1,-1)"><tspan
     sodipodi:role="line"
     id="tspan7688"
     x="393.74609"
     y="-321.62869"><tspan
   style="font-family:Symbol;-inkscape-font-specification:Symbol"
   id="tspan7692">q</tspan>(t)</tspan></text>
</g></svg>